<?xml version="1.0" encoding="utf-8"?>
<!-- Generator: Adobe Illustrator 16.0.0, SVG Export Plug-In . SVG Version: 6.00 Build 0)  -->
<!DOCTYPE svg PUBLIC "-//W3C//DTD SVG 1.1//EN" "http://www.w3.org/Graphics/SVG/1.1/DTD/svg11.dtd">
<svg version="1.1" id="Layer_1" xmlns="http://www.w3.org/2000/svg" xmlns:xlink="http://www.w3.org/1999/xlink" x="0px" y="0px"
	 width="450px" height="235px" viewBox="0 0 450 235" enable-background="new 0 0 450 235" xml:space="preserve">
<g id="AVANTAGE">
	<g>
		<g>
			
				<linearGradient id="SVGID_1_" gradientUnits="userSpaceOnUse" x1="295.7813" y1="-70.7695" x2="620.9717" y2="-70.7695" gradientTransform="matrix(1 0 0 -1 -171 46.5)">
				<stop  offset="0" style="stop-color:#296E93"/>
				<stop  offset="1" style="stop-color:#0D2431"/>
			</linearGradient>
			<path fill="url(#SVGID_1_)" d="M277.105,124.216L257.316,93.58h-10.031v47.377h10.302v-30.635l19.858,30.635h9.965V93.58h-10.305
				V124.216z M329.904,93.58h-37.953v8.608h13.826v38.769h10.302v-38.769h13.825V93.58L329.904,93.58z M401.376,131.266
				c-2.079,0.993-4.52,1.49-7.319,1.49c-3.072,0-5.785-0.632-8.135-1.896s-4.168-3.063-5.455-5.389
				c-1.287-2.328-1.932-5.051-1.932-8.168c0-3.072,0.699-5.76,2.102-8.065c1.399-2.304,3.311-4.077,5.729-5.32
				c2.414-1.242,5.138-1.865,8.167-1.865c3.253,0,6.154,0.373,8.708,1.12c2.554,0.745,4.824,1.931,6.813,3.558v-9.828
				c-2.214-1.492-4.643-2.586-7.286-3.287c-2.642-0.7-5.684-1.051-9.114-1.051c-5.063,0-9.535,1.006-13.422,3.016
				c-3.887,2.011-6.892,4.88-9.015,8.608c-2.124,3.728-3.185,8.099-3.185,13.114c0,5.016,1.061,9.377,3.185,13.083
				c2.123,3.705,5.128,6.563,9.015,8.574c3.887,2.009,8.358,3.015,13.422,3.015c7.319,0,13.215-1.535,17.689-4.607v-20.143h-9.989
				L401.376,131.266z M449.972,102.188V93.58H417.1v47.377h32.872v-8.607h-22.567v-10.912h16.604v-8.269h-16.604v-10.98
				L449.972,102.188L449.972,102.188z M143.768,93.62l-18.987,47.34h9.97l13.999-34.91l13.999,34.91h9.969l-18.986-47.34H143.768z
				 M215.441,93.62l-18.986,47.34h9.968l13.999-34.91l14,34.91h9.969l-18.986-47.34H215.441z M341.354,93.62l-18.986,47.34h9.97
				l13.998-34.91l14,34.91h9.97l-18.986-47.34H341.354z M198.352,93.617l-14,34.908l-13.999-34.908h-9.97l18.988,47.34h9.962
				l18.988-47.34H198.352z"/>
		</g>
	</g>
</g>
<g id="AVANTAGE_shadow">
	<g>
		<g>
			<defs>
				<path id="SVGID_2_" d="M277.105,124.216L257.316,93.58h-10.031v47.377h10.302v-30.635l19.858,30.635h9.965V93.58h-10.305
					V124.216z M329.904,93.58h-37.953v8.608h13.826v38.769h10.302v-38.769h13.825V93.58L329.904,93.58z M401.376,131.266
					c-2.079,0.993-4.52,1.49-7.319,1.49c-3.072,0-5.785-0.632-8.135-1.896s-4.168-3.063-5.455-5.389
					c-1.287-2.328-1.932-5.051-1.932-8.168c0-3.072,0.699-5.76,2.102-8.065c1.399-2.304,3.311-4.077,5.729-5.32
					c2.414-1.242,5.138-1.865,8.167-1.865c3.253,0,6.154,0.373,8.708,1.12c2.554,0.745,4.824,1.931,6.813,3.558v-9.828
					c-2.214-1.492-4.643-2.586-7.286-3.287c-2.642-0.7-5.684-1.051-9.114-1.051c-5.063,0-9.535,1.006-13.422,3.016
					c-3.887,2.011-6.892,4.88-9.015,8.608c-2.124,3.728-3.185,8.099-3.185,13.114c0,5.016,1.061,9.377,3.185,13.083
					c2.123,3.705,5.128,6.563,9.015,8.574c3.887,2.009,8.358,3.015,13.422,3.015c7.319,0,13.215-1.535,17.689-4.607v-20.143h-9.989
					L401.376,131.266z M449.972,102.188V93.58H417.1v47.377h32.872v-8.607h-22.567v-10.912h16.604v-8.269h-16.604v-10.98
					L449.972,102.188L449.972,102.188z M143.768,93.62l-18.987,47.34h9.97l13.999-34.91l13.999,34.91h9.969l-18.986-47.34H143.768z
					 M215.441,93.62l-18.986,47.34h9.968l13.999-34.91l14,34.91h9.969l-18.986-47.34H215.441z M341.354,93.62l-18.986,47.34h9.97
					l13.998-34.91l14,34.91h9.97l-18.986-47.34H341.354z M198.352,93.617l-14,34.908l-13.999-34.908h-9.97l18.988,47.34h9.962
					l18.988-47.34H198.352z"/>
			</defs>
			<clipPath id="SVGID_3_">
				<use xlink:href="#SVGID_2_"  overflow="visible"/>
			</clipPath>
			<g clip-path="url(#SVGID_3_)">
				<g>
					
						<linearGradient id="SVGID_4_" gradientUnits="userSpaceOnUse" x1="314.25" y1="-71.3198" x2="603.2715" y2="-71.3198" gradientTransform="matrix(1 0 0 -1 -171 46.5)">
						<stop  offset="0" style="stop-color:#164B6D"/>
						<stop  offset="1" style="stop-color:#081B28"/>
					</linearGradient>
					<path fill="url(#SVGID_4_)" d="M246.895,93.594l10.684,29.035l0.279-11.616l-10.655-17.419H246.895z M143.25,93.594
						l2.872,24.391l4.926-6.324l-7.183-18.067H143.25z M214.87,93.594l2.871,24.391l4.926-6.324l-7.182-18.067H214.87z
						 M178.801,139.711l0.514,1.266l7.113-17.894l-4.926-6.324L178.801,139.711z M340.795,93.594l2.873,24.391l4.924-6.324
						l-7.181-18.067H340.795z M415.988,102.163v4.365l16.283-4.394L415.988,102.163z M401.371,142.046l0.023-13.521l-5.237,13.521
						H401.371z M304.691,106.528l16.281-4.394l-16.281,0.028V106.528z M276.568,123.355l10.766,17.597l0.177-0.234l-10.661-28.977
						L276.568,123.355z"/>
				</g>
			</g>
		</g>
	</g>
</g>
<g id="Layer_4_copy">
	<g>
		<g>
			
				<linearGradient id="SVGID_5_" gradientUnits="userSpaceOnUse" x1="171.0278" y1="-70.772" x2="281.666" y2="-70.772" gradientTransform="matrix(1 0 0 -1 -171 46.5)">
				<stop  offset="0" style="stop-color:#296D93"/>
				<stop  offset="1" style="stop-color:#0D2531"/>
			</linearGradient>
			<path fill="url(#SVGID_5_)" d="M83.006,69.364H27.688l-27.66,47.908l13.811,23.921L41.51,93.31h27.679l27.668,47.879
				l13.809-23.918L83.006,69.364z M13.841,141.195l13.847,23.984h55.318l13.848-23.984H13.841z"/>
		</g>
	</g>
</g>
<g id="Layer_10">
	<g id="Layer_11">
		
			<linearGradient id="SVGID_6_" gradientUnits="userSpaceOnUse" x1="171.0498" y1="-70.75" x2="267.8311" y2="-70.75" gradientTransform="matrix(1 0 0 -1 -171 46.5)">
			<stop  offset="0" style="stop-color:#358BBB"/>
			<stop  offset="1" style="stop-color:#194259"/>
		</linearGradient>
		<path fill="url(#SVGID_6_)" d="M83.006,165.143L69.18,141.195h27.651L83.006,165.143z M13.876,141.198L0.05,117.251h27.651
			L13.876,141.198z M27.702,165.143l-13.826-23.947h27.651L27.702,165.143z M41.53,93.305L27.704,69.358h27.651L41.53,93.305z"/>
	</g>
</g>
<linearGradient id="Layer_12_1_" gradientUnits="userSpaceOnUse" x1="69.1821" y1="93.311" x2="110.6592" y2="93.311">
	<stop  offset="0" style="stop-color:#071E2A"/>
	<stop  offset="1" style="stop-color:#041219"/>
</linearGradient>
<path id="Layer_12" fill="url(#Layer_12_1_)" d="M96.834,93.312l-13.826,23.946h27.651L96.834,93.312z M83.008,69.364L69.182,93.311
	h27.651L83.008,69.364z"/>
<g id="Layer_14">
	<g id="Layer_15">
		
			<linearGradient id="SVGID_7_" gradientUnits="userSpaceOnUse" x1="184.876" y1="-70.75" x2="281.6563" y2="-70.75" gradientTransform="matrix(1 0 0 -1 -171 46.5)">
			<stop  offset="0" style="stop-color:#1A4E6A"/>
			<stop  offset="1" style="stop-color:#091B26"/>
		</linearGradient>
		<path fill="url(#SVGID_7_)" d="M55.355,165.143l-13.826-23.947H69.18L55.355,165.143z M27.702,117.252L13.876,93.306h27.651
			L27.702,117.252z M96.831,141.198l13.825-23.947H83.005L96.831,141.198z M83.005,117.252l13.826-23.946H69.179L83.005,117.252z
			 M69.183,93.305L55.357,69.358h27.651L69.183,93.305z"/>
	</g>
</g>
<g id="Logo">
	<g id="Layer_10_1_">
		<g id="Layer_11_1_">
			<path fill="#E94D65" d="M55.347,117.271l13.826,23.947H41.521L55.347,117.271z"/>
		</g>
	</g>
</g>
</svg>
